<?xml version="1.0" standalone="no"?><!DOCTYPE svg PUBLIC "-//W3C//DTD SVG 1.1//EN" "http://www.w3.org/Graphics/SVG/1.1/DTD/svg11.dtd"><svg t="1683894272996" class="icon" viewBox="0 0 1024 1024" version="1.1" xmlns="http://www.w3.org/2000/svg" p-id="2775" data-spm-anchor-id="a313x.7781069.0.i7" xmlns:xlink="http://www.w3.org/1999/xlink" width="200" height="200"><path d="M744.96 115.712H257.536c-67.072 0-121.344 54.272-121.344 121.344v329.216c0 67.072 54.272 121.344 121.344 121.344h487.424c67.072 0 121.344-54.272 121.344-121.344V237.568c0-67.072-54.272-121.856-121.344-121.856z m64 412.16c0 54.272-44.032 98.304-98.304 98.304H291.84c-54.272 0-98.304-44.032-98.304-98.304V275.968c0-54.272 44.032-98.304 98.304-98.304h419.328c54.272 0 98.304 44.032 98.304 98.304v251.904zM330.24 813.056h332.8l9.216-61.44h-332.8z" fill="#515151" p-id="2776" data-spm-anchor-id="a313x.7781069.0.i6" class="selected"></path><path d="M428.032 487.424L343.552 401.92l72.192-71.68-29.696-43.008-115.2 114.688 36.352 36.352L385.536 517.12zM551.936 312.32l-54.784 204.288-46.592-24.064 55.296-204.8zM574.464 316.928l84.48 85.504-72.192 71.68 29.696 43.008 115.2-114.688-36.352-36.352-78.336-78.848z" fill="#EF4444" p-id="2777" data-spm-anchor-id="a313x.7781069.0.i5" class=""></path></svg>