<?xml version="1.0" standalone="no"?><!DOCTYPE svg PUBLIC "-//W3C//DTD SVG 1.1//EN" "http://www.w3.org/Graphics/SVG/1.1/DTD/svg11.dtd"><svg height="800" node-id="1" sillyvg="true" template-height="800" template-width="800" version="1.1" viewBox="0 0 800 800" width="800" xmlns="http://www.w3.org/2000/svg" xmlns:xlink="http://www.w3.org/1999/xlink"><defs node-id="124"><linearGradient gradientUnits="userSpaceOnUse" id="SVGID_1_" node-id="20" spreadMethod="pad" x1="400.7835" x2="400.7835" y1="155.4897" y2="710.9813"><stop offset="0.00000009590021" stop-color="#f4f2fb"></stop><stop offset="1" stop-color="#e1eef5"></stop></linearGradient><linearGradient gradientUnits="userSpaceOnUse" id="SVGID_2_" node-id="25" spreadMethod="pad" x1="115.8653" x2="115.8653" y1="535.876" y2="398.7014"><stop offset="0.2267" stop-color="#b7ace0"></stop><stop offset="0.7893" stop-color="#e8e7fa"></stop></linearGradient><linearGradient gradientUnits="userSpaceOnUse" id="SVGID_3_" node-id="30" spreadMethod="pad" x1="115.8672" x2="115.8672" y1="413.9331" y2="565.0664"><stop offset="0" stop-color="#ecf1fb"></stop><stop offset="0.818" stop-color="#afb0e7"></stop></linearGradient><linearGradient gradientUnits="userSpaceOnUse" id="SVGID_4_" node-id="35" spreadMethod="pad" x1="616.9941" x2="616.9941" y1="444.354" y2="356.0295"><stop offset="0.2267" stop-color="#ccd4f4"></stop><stop offset="0.7893" stop-color="#ecf1fb"></stop></linearGradient><linearGradient gradientUnits="userSpaceOnUse" id="SVGID_5_" node-id="40" spreadMethod="pad" x1="616.9954" x2="616.9954" y1="365.837" y2="463.1493"><stop offset="0" stop-color="#ecf1fb"></stop><stop offset="1" stop-color="#a6a8e2"></stop></linearGradient><linearGradient gradientUnits="userSpaceOnUse" id="SVGID_6_" node-id="44" spreadMethod="pad" x1="462.9123" x2="428.158" y1="81.7474" y2="141.9436"><stop offset="0" stop-color="#ffdb80"></stop><stop offset="1" stop-color="#ffbb24"></stop></linearGradient><linearGradient gradientUnits="userSpaceOnUse" id="SVGID_7_" node-id="48" spreadMethod="pad" x1="420.5751" x2="420.5751" y1="112.2136" y2="169.6676"><stop offset="0" stop-color="#f9fafe"></stop><stop offset="1" stop-color="#e5edf7"></stop></linearGradient><linearGradient gradientUnits="userSpaceOnUse" id="SVGID_8_" node-id="53" spreadMethod="pad" x1="687.5965" x2="687.5965" y1="533.5941" y2="505.7659"><stop offset="0.2267" stop-color="#afb0e7"></stop><stop offset="1" stop-color="#ecf1fb"></stop></linearGradient><linearGradient gradientUnits="userSpaceOnUse" id="SVGID_9_" node-id="57" spreadMethod="pad" x1="687.6456" x2="687.6456" y1="509.2796" y2="554.0755"><stop offset="0.00000009590021" stop-color="#dde1f6"></stop><stop offset="0.818" stop-color="#a6a8e2"></stop></linearGradient><linearGradient gradientUnits="userSpaceOnUse" id="SVGID_10_" node-id="61" spreadMethod="pad" x1="449.5276" x2="575.8069" y1="602.095" y2="383.3728"><stop offset="0.3396" stop-color="#b0b9e1"></stop><stop offset="0.8657" stop-color="#eaf0f8"></stop></linearGradient><linearGradient gradientUnits="userSpaceOnUse" id="SVGID_11_" node-id="66" spreadMethod="pad" x1="305.9053" x2="519.8668" y1="259.9072" y2="630.4993"><stop offset="0" stop-color="#c8cbf2"></stop><stop offset="1" stop-color="#afb0e7"></stop></linearGradient><linearGradient gradientUnits="userSpaceOnUse" id="SVGID_12_" node-id="70" spreadMethod="pad" x1="302.7" x2="509.912" y1="271.3264" y2="630.2281"><stop offset="0.1157" stop-color="#dee4ff"></stop><stop offset="0.8472" stop-color="#bacbee"></stop></linearGradient><linearGradient gradientUnits="userSpaceOnUse" id="SVGID_13_" node-id="74" spreadMethod="pad" x1="324.6936" x2="382.1354" y1="347.5418" y2="447.034"><stop offset="0" stop-color="#c8cbf2"></stop><stop offset="1" stop-color="#afb0e7"></stop></linearGradient><linearGradient gradientUnits="userSpaceOnUse" id="SVGID_14_" node-id="79" spreadMethod="pad" x1="364.6062" x2="448.6564" y1="384.3011" y2="529.8804"><stop offset="0" stop-color="#c8cbf2"></stop><stop offset="1" stop-color="#afb0e7"></stop></linearGradient><linearGradient gradientUnits="userSpaceOnUse" id="SVGID_15_" node-id="84" spreadMethod="pad" x1="364.6062" x2="448.6564" y1="445.5055" y2="591.0848"><stop offset="0" stop-color="#c8cbf2"></stop><stop offset="1" stop-color="#afb0e7"></stop></linearGradient><linearGradient gradientUnits="userSpaceOnUse" id="SVGID_16_" node-id="89" spreadMethod="pad" x1="518.9282" x2="559.5704" y1="349.7822" y2="420.1767"><stop offset="0" stop-color="#c8cbf2"></stop><stop offset="1" stop-color="#afb0e7"></stop></linearGradient><linearGradient gradientUnits="userSpaceOnUse" id="SVGID_17_" node-id="98" spreadMethod="pad" x1="321.8481" x2="321.8481" y1="310.6903" y2="267.429"><stop offset="0" stop-color="#445677"></stop><stop offset="1" stop-color="#293861"></stop></linearGradient><linearGradient gradientUnits="userSpaceOnUse" id="SVGID_18_" node-id="102" spreadMethod="pad" x1="322.1475" x2="322.1475" y1="280.4251" y2="195.0997"><stop offset="0" stop-color="#c3d5fd"></stop><stop offset="1" stop-color="#1a90fc"></stop></linearGradient><linearGradient gradientUnits="userSpaceOnUse" id="SVGID_19_" node-id="106" spreadMethod="pad" x1="320.9777" x2="320.9777" y1="225.036" y2="154.3617"><stop offset="0" stop-color="#4f5c7c"></stop><stop offset="1" stop-color="#274168"></stop></linearGradient><linearGradient gradientUnits="userSpaceOnUse" id="SVGID_20_" node-id="110" spreadMethod="pad" x1="492.0688" x2="532.7136" y1="198.2625" y2="268.6614"><stop offset="0.1157" stop-color="#dee4ff"></stop><stop offset="0.8472" stop-color="#bacbee"></stop></linearGradient><linearGradient gradientUnits="userSpaceOnUse" id="SVGID_21_" node-id="114" spreadMethod="pad" x1="162.1077" x2="177.1286" y1="541.1406" y2="567.1575"><stop offset="0.1157" stop-color="#dee4ff"></stop><stop offset="0.8472" stop-color="#bacbee"></stop></linearGradient><linearGradient gradientUnits="userSpaceOnUse" id="SVGID_22_" node-id="118" spreadMethod="pad" x1="637.3961" x2="652.417" y1="579.1283" y2="605.1453"><stop offset="0.1157" stop-color="#dee4ff"></stop><stop offset="0.8472" stop-color="#bacbee"></stop></linearGradient></defs><g node-id="346"><g node-id="347"><path d="M 484.04 196.84 C 445.67 227.13 363.30 230.65 302.87 194.62 C 242.44 158.59 130.87 163.24 100.65 229.49 C 70.43 295.74 137.84 360.82 113.43 408.47 C 89.02 456.12 7.67 523.52 63.46 604.87 C 119.25 686.22 190.06 665.49 232.68 657.32 C 316.85 641.19 422.47 772.99 541.30 673.45 C 609.77 616.10 711.74 715.54 751.47 592.09 C 784.25 490.23 665.80 452.59 701.50 384.06 C 739.46 311.18 732.17 224.82 691.04 183.00 C 652.73 144.05 550.29 144.54 484.04 196.84 Z" fill="url(#SVGID_1_)" fill-rule="nonzero" group-id="1,2" node-id="264" stroke="none" target-height="628.94" target-width="776.58" target-x="7.67" target-y="144.05"></path><g node-id="350"><path d="M 116.65 398.94 C 116.65 398.94 116.43 398.37 116.13 398.98 C 113.43 404.47 88.98 463.94 87.04 509.84 C 87.04 509.84 82.96 536.21 117.15 535.86 C 145.69 535.57 144.93 511.26 144.83 503.07 C 144.44 469.85 116.65 398.94 116.65 398.94 Z" fill="url(#SVGID_2_)" fill-rule="nonzero" group-id="1,2,5" node-id="268" stroke="none" target-height="137.84003" target-width="62.730003" target-x="82.96" target-y="398.37"></path><g node-id="355"><path d="M 115.87 565.07 C 115.32 565.07 114.87 564.62 114.87 564.07 L 114.87 414.93 C 114.87 414.38 115.32 413.93 115.87 413.93 C 116.42 413.93 116.87 414.38 116.87 414.93 L 116.87 564.06 C 116.87 564.62 116.42 565.07 115.87 565.07 Z" fill="url(#SVGID_3_)" fill-rule="nonzero" group-id="1,2,5,10" node-id="272" stroke="none" target-height="151.14001" target-width="2" target-x="114.87" target-y="413.93"></path></g></g><g node-id="351"><path d="M 617.50 356.19 C 617.50 356.19 617.36 355.82 617.17 356.22 C 615.43 359.75 599.69 398.05 598.44 427.60 C 598.44 427.60 595.81 444.58 617.83 444.36 C 636.21 444.18 635.72 428.52 635.65 423.25 C 635.40 401.84 617.50 356.19 617.50 356.19 Z" fill="url(#SVGID_4_)" fill-rule="nonzero" group-id="1,2,6" node-id="278" stroke="none" target-height="88.75998" target-width="40.400024" target-x="595.81" target-y="355.82"></path><g node-id="356"><path d="M 617.00 463.15 C 616.64 463.15 616.36 462.86 616.36 462.51 L 616.36 366.49 C 616.36 366.13 616.65 365.85 617.00 365.85 C 617.35 365.85 617.64 366.14 617.64 366.49 L 617.64 462.51 C 617.64 462.86 617.35 463.15 617.00 463.15 Z" fill="url(#SVGID_5_)" fill-rule="nonzero" group-id="1,2,6,11" node-id="282" stroke="none" target-height="97.29999" target-width="1.2800293" target-x="616.36" target-y="365.85"></path></g></g><path d="M 480.29 111.85 C 480.29 131.04 464.73 146.60 445.54 146.60 C 426.35 146.60 410.79 131.04 410.79 111.85 C 410.79 92.66 426.35 77.10 445.54 77.10 C 464.73 77.10 480.29 92.66 480.29 111.85 Z" fill="url(#SVGID_6_)" fill-rule="nonzero" group-id="1,2" node-id="286" stroke="none" target-height="69.50001" target-width="69.5" target-x="410.79" target-y="77.1"></path><path d="M 465.31 130.80 L 430.74 130.80 C 428.51 120.19 419.09 112.22 407.81 112.22 C 396.53 112.22 387.12 120.19 384.88 130.80 L 375.83 130.80 C 365.10 130.80 356.39 139.50 356.39 150.24 L 356.39 150.24 C 356.39 160.97 365.09 169.68 375.83 169.68 L 465.30 169.68 C 476.03 169.68 484.74 160.98 484.74 150.24 L 484.74 150.24 C 484.75 139.50 476.05 130.80 465.31 130.80 Z" fill="url(#SVGID_7_)" fill-rule="nonzero" group-id="1,2" node-id="288" stroke="none" target-height="57.45999" target-width="128.35999" target-x="356.39" target-y="112.22"></path><path d="M 701.51 519.68 C 701.51 527.36 695.28 533.59 687.60 533.59 C 679.92 533.59 673.69 527.36 673.69 519.68 C 673.69 512.00 679.92 505.77 687.60 505.77 C 695.28 505.77 701.51 512.00 701.51 519.68 Z" fill="url(#SVGID_8_)" fill-rule="nonzero" group-id="1,2,7" node-id="292" stroke="none" target-height="27.820038" target-width="27.820007" target-x="673.69" target-y="505.77"></path><path d="M 687.65 554.08 C 687.41 554.08 687.22 553.89 687.22 553.65 L 687.22 509.71 C 687.22 509.47 687.41 509.28 687.65 509.28 C 687.89 509.28 688.08 509.47 688.08 509.71 L 688.08 553.65 C 688.07 553.88 687.88 554.08 687.65 554.08 Z" fill="url(#SVGID_9_)" fill-rule="nonzero" group-id="1,2,7" node-id="294" stroke="none" target-height="44.80002" target-width="0.8600464" target-x="687.22" target-y="509.28"></path></g><path d="M 397.54 442.39 L 678.04 442.39 L 618.85 558.57 L 374.13 558.57 Z" fill="url(#SVGID_10_)" fill-rule="nonzero" group-id="1" node-id="298" stroke="none" target-height="116.17999" target-width="303.90997" target-x="374.13" target-y="442.39"></path><path d="M 573.72 592.01 L 448.83 592.01 C 446.21 592.01 443.71 593.09 441.93 595.00 L 419.55 618.90 C 415.90 622.79 409.76 622.90 405.98 619.14 L 381.47 594.76 C 379.70 593.00 377.30 592.01 374.80 592.01 L 252.06 592.01 C 225.68 592.01 204.30 570.63 204.30 544.25 L 204.30 346.15 C 204.30 319.77 225.68 298.39 252.06 298.39 L 573.72 298.39 C 600.10 298.39 621.48 319.77 621.48 346.15 L 621.48 544.25 C 621.48 570.63 600.09 592.01 573.72 592.01 Z" fill="url(#SVGID_11_)" fill-rule="nonzero" group-id="1,3" node-id="302" stroke="none" target-height="324.51" target-width="417.18" target-x="204.3" target-y="298.39"></path><path d="M 562.06 592.95 L 441.11 592.95 C 438.58 592.95 436.16 594.00 434.42 595.85 L 412.76 619.00 C 409.23 622.77 403.28 622.88 399.61 619.23 L 375.87 595.62 C 374.15 593.91 371.83 592.95 369.41 592.95 L 250.55 592.95 C 225.00 592.95 204.30 572.24 204.30 546.70 L 204.30 354.85 C 204.30 329.30 225.01 308.60 250.55 308.60 L 562.06 308.60 C 587.61 308.60 608.31 329.31 608.31 354.85 L 608.31 546.70 C 608.32 572.25 587.61 592.95 562.06 592.95 Z" fill="url(#SVGID_12_)" fill-rule="nonzero" group-id="1,3" node-id="304" stroke="none" target-height="314.28" target-width="404.02002" target-x="204.3" target-y="308.6"></path><path d="M 446.40 408.57 L 259.94 408.57 C 254.81 408.57 250.66 403.55 250.66 397.36 C 250.66 391.17 254.82 386.15 259.94 386.15 L 446.40 386.15 C 451.53 386.15 456.59 391.33 456.59 397.52 C 456.59 403.71 451.53 408.57 446.40 408.57 Z" fill="url(#SVGID_13_)" fill-rule="nonzero" group-id="1,3" node-id="306" stroke="none" target-height="22.420013" target-width="205.93" target-x="250.66" target-y="386.15"></path><path d="M 444.66 408.53 L 259.94 408.53 C 254.81 408.53 250.66 404.37 250.66 399.25 C 250.66 394.13 254.82 389.97 259.94 389.97 L 444.66 389.97 C 449.79 389.97 453.94 394.13 453.94 399.25 C 453.94 404.37 449.78 408.53 444.66 408.53 Z" fill="#ffffff" fill-rule="nonzero" group-id="1,3" node-id="308" stroke="none" target-height="18.559998" target-width="203.28" target-x="250.66" target-y="389.97"></path><path d="M 552.83 468.37 L 259.93 468.37 C 254.80 468.37 250.65 463.35 250.65 457.16 C 250.65 450.97 254.81 445.95 259.93 445.95 L 552.83 445.95 C 557.96 445.95 563.02 451.13 563.02 457.32 C 563.03 463.52 557.96 468.37 552.83 468.37 Z" fill="url(#SVGID_14_)" fill-rule="nonzero" group-id="1,3" node-id="310" stroke="none" target-height="22.419983" target-width="312.38004" target-x="250.65" target-y="445.95"></path><path d="M 551.09 468.33 L 259.94 468.33 C 254.81 468.33 250.66 464.17 250.66 459.05 C 250.66 453.93 254.82 449.77 259.94 449.77 L 551.09 449.77 C 556.22 449.77 560.37 453.93 560.37 459.05 C 560.37 464.17 556.22 468.33 551.09 468.33 Z" fill="#ffffff" fill-rule="nonzero" group-id="1,3" node-id="312" stroke="none" target-height="18.559998" target-width="309.71" target-x="250.66" target-y="449.77"></path><path d="M 552.83 529.58 L 259.93 529.58 C 254.80 529.58 250.65 524.56 250.65 518.37 C 250.65 512.18 254.81 507.16 259.93 507.16 L 552.83 507.16 C 557.96 507.16 563.02 512.34 563.02 518.53 C 563.02 524.72 557.96 529.58 552.83 529.58 Z" fill="url(#SVGID_15_)" fill-rule="nonzero" group-id="1,3" node-id="314" stroke="none" target-height="22.420013" target-width="312.37003" target-x="250.65" target-y="507.16"></path><path d="M 551.09 529.54 L 259.94 529.54 C 254.81 529.54 250.66 525.38 250.66 520.26 C 250.66 515.14 254.82 510.98 259.94 510.98 L 551.09 510.98 C 556.22 510.98 560.37 515.14 560.37 520.26 C 560.37 525.38 556.22 529.54 551.09 529.54 Z" fill="#ffffff" fill-rule="nonzero" group-id="1,3" node-id="316" stroke="none" target-height="18.559967" target-width="309.71" target-x="250.66" target-y="510.98"></path><path d="M 554.85 384.98 L 568.78 371.10 C 573.08 366.80 573.08 359.83 568.78 355.53 C 564.48 351.23 557.51 351.23 553.21 355.53 L 539.25 369.44 L 525.29 355.53 C 520.99 351.23 514.02 351.23 509.72 355.53 C 505.42 359.83 505.42 366.80 509.72 371.10 L 523.65 384.98 L 509.72 398.86 C 505.42 403.16 505.42 410.13 509.72 414.43 C 511.87 416.58 514.69 417.65 517.50 417.65 C 520.32 417.65 523.13 416.58 525.28 414.43 L 539.24 400.52 L 553.20 414.43 C 555.35 416.58 558.17 417.65 560.98 417.65 C 563.80 417.65 566.61 416.58 568.76 414.43 C 573.06 410.13 573.06 403.16 568.76 398.86 L 554.85 384.98 Z" fill="url(#SVGID_16_)" fill-rule="nonzero" group-id="1,3" node-id="318" stroke="none" target-height="66.41998" target-width="67.66" target-x="505.42" target-y="351.23"></path><path d="M 515.72 415.39 C 513.28 415.39 510.85 414.46 508.99 412.60 C 505.27 408.88 505.27 402.86 508.99 399.14 L 551.21 356.92 C 554.93 353.20 560.95 353.20 564.67 356.92 C 568.39 360.64 568.39 366.66 564.67 370.38 L 522.45 412.60 C 520.59 414.46 518.16 415.39 515.72 415.39 Z" fill="#ffffff" fill-rule="nonzero" group-id="1,3,8" node-id="322" stroke="none" target-height="62.190002" target-width="63.120026" target-x="505.27" target-y="353.2"></path><path d="M 557.94 415.39 C 555.50 415.39 553.07 414.46 551.21 412.60 L 508.99 370.38 C 505.27 366.66 505.27 360.64 508.99 356.92 C 512.71 353.20 518.74 353.20 522.45 356.92 L 564.67 399.14 C 568.39 402.86 568.39 408.88 564.67 412.60 C 562.82 414.46 560.38 415.39 557.94 415.39 Z" fill="#ffffff" fill-rule="nonzero" group-id="1,3,9" node-id="327" stroke="none" target-height="62.190002" target-width="63.120026" target-x="505.27" target-y="353.2"></path><path d="M 292.46 269.34 C 292.46 269.34 286.13 286.03 288.80 296.75 C 292.73 312.47 309.22 312.59 321.91 307.97 C 331.13 313.83 352.04 310.19 354.83 297.37 C 356.77 288.47 354.83 273.65 348.75 269.34 C 342.67 265.04 292.46 269.34 292.46 269.34 Z" fill="url(#SVGID_17_)" fill-rule="nonzero" group-id="1,4" node-id="333" stroke="none" target-height="48.789978" target-width="70.639984" target-x="286.13" target-y="265.04"></path><path d="M 357.89 212.17 C 356.64 207.19 354.63 203.95 352.73 201.86 C 350.10 197.97 346.52 195.60 341.72 197.14 C 334.15 198.00 331.76 197.86 331.76 197.86 C 331.76 197.86 329.77 204.61 322.93 204.04 C 316.09 203.47 315.72 195.44 315.72 195.44 C 315.72 195.44 303.17 193.60 296.26 198.41 C 294.83 198.97 289.00 201.86 286.40 212.16 C 282.46 227.80 278.18 249.79 286.67 259.37 C 287.88 260.74 289.33 262.11 290.90 263.45 L 288.80 276.55 C 288.80 278.68 290.42 280.41 292.43 280.41 L 351.00 280.41 C 353.00 280.41 354.63 278.68 354.63 276.55 L 352.53 264.16 C 354.44 262.59 356.18 260.98 357.62 259.37 C 366.11 249.80 361.82 227.81 357.89 212.17 Z" fill="url(#SVGID_18_)" fill-rule="nonzero" group-id="1,4" node-id="335" stroke="none" target-height="86.81" target-width="87.92999" target-x="278.18" target-y="193.6"></path><path d="M 350.28 189.77 C 351.27 185.59 347.29 178.52 339.84 174.57 C 339.90 162.04 328.92 152.67 321.40 154.61 C 312.07 154.47 305.12 158.91 302.87 168.05 C 302.44 169.81 302.21 171.35 302.15 172.72 L 302.13 172.74 C 302.13 172.74 302.06 173.17 301.96 173.89 L 301.54 174.10 C 301.54 174.10 291.65 179.46 292.16 188.97 C 288.17 191.14 275.92 202.62 291.55 216.37 C 298.90 221.44 300.05 222.32 300.05 222.32 C 300.05 222.32 307.72 226.81 320.99 224.25 C 321.63 224.16 322.25 224.03 322.86 223.86 C 322.87 223.86 322.89 223.86 322.90 223.85 C 322.90 223.85 322.90 223.85 322.90 223.85 C 324.38 223.44 325.72 222.80 326.71 221.92 C 330.97 218.13 334.02 221.45 339.84 220.97 C 345.54 220.51 351.36 218.13 354.90 212.80 C 354.93 212.75 354.97 212.70 355.00 212.65 C 355.04 212.58 355.09 212.52 355.13 212.45 C 355.13 212.45 355.13 212.44 355.12 212.44 C 355.88 211.28 356.53 210.01 357.01 208.63 C 359.83 200.69 357.13 194.94 350.28 189.77 Z" fill="url(#SVGID_19_)" fill-rule="nonzero" group-id="1,4" node-id="337" stroke="none" target-height="74.14" target-width="83.90997" target-x="275.92" target-y="152.67"></path><path d="M 553.03 233.46 C 553.03 255.90 534.83 274.10 512.39 274.10 C 489.95 274.10 471.75 255.90 471.75 233.46 C 471.75 211.02 489.95 192.82 512.39 192.82 C 534.83 192.82 553.03 211.02 553.03 233.46 Z" fill="url(#SVGID_20_)" fill-rule="nonzero" group-id="1" node-id="340" stroke="none" target-height="81.28" target-width="81.28003" target-x="471.75" target-y="192.82"></path><path d="M 184.64 554.15 C 184.64 562.45 177.92 569.17 169.62 569.17 C 161.32 569.17 154.60 562.45 154.60 554.15 C 154.60 545.85 161.32 539.13 169.62 539.13 C 177.92 539.13 184.64 545.85 184.64 554.15 Z" fill="url(#SVGID_21_)" fill-rule="nonzero" group-id="1" node-id="342" stroke="none" target-height="30.039978" target-width="30.039993" target-x="154.6" target-y="539.13"></path><path d="M 659.93 592.14 C 659.93 600.44 653.21 607.16 644.91 607.16 C 636.61 607.16 629.89 600.44 629.89 592.14 C 629.89 583.84 636.61 577.12 644.91 577.12 C 653.21 577.12 659.93 583.84 659.93 592.14 Z" fill="url(#SVGID_22_)" fill-rule="nonzero" group-id="1" node-id="344" stroke="none" target-height="30.039978" target-width="30.039978" target-x="629.89" target-y="577.12"></path></g></svg>