<?xml version="1.0" standalone="no"?><!DOCTYPE svg PUBLIC "-//W3C//DTD SVG 1.1//EN" "http://www.w3.org/Graphics/SVG/1.1/DTD/svg11.dtd"><svg height="841" node-id="1" sillyvg="true" template-height="841" template-width="815" version="1.1" viewBox="0 0 815 841" width="815" xmlns="http://www.w3.org/2000/svg" xmlns:xlink="http://www.w3.org/1999/xlink"><defs node-id="14"></defs><g node-id="16"><g node-id="17"><path d="M 443.10 166.62 L 443.10 307.25 L 420.33 305.84 L 419.28 305.78 L 418.12 303.20 L 416.79 301.17 L 415.39 299.19 L 414.83 297.02 L 414.01 295.02 L 413.37 291.50 L 412.81 289.78 L 415.43 273.81 L 413.72 273.29 L 359.33 256.58 L 359.20 256.54 L 357.68 256.06 L 357.52 256.02 L 357.42 255.99 L 357.30 255.96 L 357.29 255.95 L 355.17 255.30 L 357.30 245.92 L 359.79 237.41 L 362.61 229.71 L 365.72 222.73 L 369.40 215.83 L 373.28 209.59 L 377.37 203.97 L 381.66 198.91 L 386.37 194.10 L 391.18 189.77 L 396.09 185.92 L 401.12 182.51 L 408.16 178.42 L 415.19 174.99 L 422.22 172.19 L 429.43 169.84 L 436.38 167.99 L 443.10 166.62" fill="#ffbe21" fill-rule="evenodd" group-id="1,2" id="Fill-352" node-id="7" stroke="none" target-height="140.626" target-width="87.931" target-x="355.1658" target-y="166.6206"></path><path d="M 430.17 316.63 L 426.35 313.35 L 423.08 309.76 L 420.33 305.84 L 418.03 301.50 L 416.29 296.89 L 415.11 291.97 L 414.54 286.93 L 414.56 281.67 L 415.20 276.13 L 416.31 271.28 L 417.96 266.32 L 420.03 261.48 L 422.49 256.77 L 425.26 252.28 L 428.23 248.18 L 426.59 246.90 L 423.71 250.75 L 421.09 254.90 L 418.73 259.35 L 416.69 263.96 L 415.02 268.61 L 413.72 273.29 L 412.93 277.08 L 412.30 282.34 L 412.22 287.26 L 412.64 291.90 L 413.54 296.29 L 414.92 300.45 L 416.79 304.46 L 419.09 308.23 L 421.86 311.79 L 425.11 315.16 L 428.89 318.33 L 435.83 323.19 L 443.10 327.55 L 443.10 325.12 L 436.49 321.09 L 430.17 316.63" fill="#000000" fill-rule="evenodd" group-id="1,2" id="Fill-353" node-id="8" stroke="none" target-height="80.658005" target-width="30.88153" target-x="412.21558" target-y="246.8968"></path><path d="M 367.02 345.28 L 364.11 339.96 L 360.95 333.32 L 358.09 326.18 L 355.46 317.98 L 354.06 312.32 L 352.95 306.30 L 352.18 299.90 L 351.84 293.48 L 352.01 286.76 L 352.70 279.74 L 353.58 274.56 L 354.85 269.24 L 356.53 263.78 L 358.65 258.15 L 359.33 256.58 L 359.20 256.54 L 358.43 256.28 L 357.68 256.06 L 357.52 256.02 L 357.42 255.99 L 357.30 255.96 L 357.29 255.95 L 356.98 256.64 L 356.69 257.33 L 354.52 263.09 L 352.80 268.68 L 351.50 274.12 L 350.60 279.41 L 349.89 286.59 L 349.71 293.45 L 350.05 300.02 L 350.84 306.55 L 351.96 312.70 L 353.40 318.48 L 355.15 324.19 L 357.02 329.40 L 358.99 334.14 L 362.22 340.92 L 365.18 346.34 L 369.36 352.97 L 373.84 359.10 L 378.62 364.76 L 383.74 370.12 L 389.00 375.04 L 394.39 379.54 L 390.04 406.78 L 387.30 424.26 L 384.33 442.06 L 381.01 459.92 L 377.12 478.12 L 374.17 490.22 L 370.81 502.49 L 367.02 514.95 L 366.91 515.16 L 366.51 515.40 L 365.40 515.52 L 363.10 515.13 L 360.37 514.24 L 355.90 512.32 L 350.85 509.79 L 343.57 505.74 L 335.53 500.94 L 324.77 494.16 L 313.09 486.48 L 298.19 476.36 L 282.19 465.19 L 262.47 451.12 L 239.56 434.43 L 218.10 418.53 L 199.28 404.42 L 184.30 393.07 L 174.35 385.47 L 170.62 382.61 L 169.71 381.91 L 166.98 385.44 L 166.98 385.45 L 165.61 379.42 L 163.95 373.15 L 162.00 366.86 L 159.69 360.46 L 156.21 352.29 L 152.37 344.73 L 148.17 337.74 L 146.33 339.11 L 150.42 345.93 L 154.16 353.31 L 157.56 361.29 L 160.00 368.11 L 162.04 374.80 L 163.75 381.47 L 165.12 387.83 L 97.87 474.45 L 97.87 474.46 L 93.93 473.09 L 89.65 472.28 L 85.24 472.07 L 80.78 472.44 L 76.41 473.42 L 72.28 474.98 L 72.03 475.10 L 68.69 477.06 L 62.35 481.28 L 62.66 481.78 L 63.38 483.34 L 70.00 478.94 L 71.59 477.93 L 73.25 477.06 L 73.49 476.95 L 77.20 475.57 L 81.11 474.70 L 85.10 474.35 L 89.03 474.50 L 92.87 475.17 L 96.41 476.33 L 91.04 483.25 L 92.03 483.95 L 97.67 487.80 L 112.80 497.92 L 135.71 512.84 L 164.74 531.08 L 180.82 540.87 L 198.18 551.17 L 215.94 561.41 L 234.35 571.65 L 256.26 583.30 L 276.33 593.39 L 294.65 602.03 L 308.82 608.26 L 321.83 613.59 L 333.74 618.07 L 344.64 621.78 L 354.95 624.88 L 364.28 627.27 L 372.70 629.02 L 380.29 630.20 L 387.12 630.87 L 393.26 631.08 L 399.67 630.81 L 405.30 630.04 L 410.24 628.83 L 414.55 627.21 L 418.33 625.22 L 421.62 622.86 L 426.43 618.52 L 431.58 613.08 L 437.13 606.40 L 443.10 598.31 L 443.10 594.10 L 437.86 601.55 L 432.97 607.86 L 428.40 613.15 L 424.14 617.53 L 420.16 621.10 L 416.90 623.41 L 413.11 625.34 L 408.74 626.87 L 403.69 627.99 L 397.87 628.63 L 391.17 628.74 L 383.48 628.22 L 375.75 627.17 L 367.09 625.50 L 357.43 623.12 L 346.65 619.96 L 334.68 615.93 L 321.40 610.93 L 307.12 605.03 L 291.48 598.05 L 274.39 589.89 L 255.75 580.46 L 235.47 569.65 L 218.30 560.11 L 201.66 550.56 L 185.37 540.93 L 170.14 531.71 L 142.28 514.31 L 119.44 499.56 L 103.00 488.64 L 94.34 482.75 L 170.12 385.12 L 178.01 391.16 L 192.66 402.29 L 212.48 417.19 L 235.84 434.53 L 261.13 452.97 L 281.21 467.30 L 298.44 479.31 L 314.77 490.35 L 328.06 498.97 L 338.51 505.42 L 346.10 509.81 L 352.93 513.42 L 357.52 515.54 L 361.57 517.05 L 363.99 517.64 L 366.05 517.78 L 367.19 517.58 L 368.10 517.14 L 368.76 516.51 L 369.19 515.65 L 373.00 503.14 L 376.38 490.81 L 379.34 478.67 L 383.25 460.41 L 386.58 442.50 L 389.56 424.65 L 392.31 407.13 L 396.45 381.14 L 402.85 385.75 L 409.15 389.84 L 415.35 393.45 L 424.96 398.41 L 433.62 402.27 L 443.10 405.93 L 443.10 403.66 L 434.43 400.31 L 426.29 396.69 L 417.29 392.10 L 411.34 388.69 L 405.29 384.83 L 399.12 380.49 L 393.19 375.84 L 387.40 370.69 L 381.75 365.03 L 376.49 359.01 L 371.58 352.43 L 367.02 345.28" fill="#000000" fill-rule="evenodd" group-id="1,2" id="Fill-354" node-id="9" stroke="none" target-height="375.13702" target-width="380.746" target-x="62.3512" target-y="255.9474"></path><path d="M 507.56 412.85 L 505.40 413.05 L 503.43 413.59 L 501.60 414.46 L 499.95 415.63 L 498.54 417.04 L 497.37 418.69 L 496.50 420.52 L 495.96 422.49 L 495.76 424.65 L 495.96 426.80 L 496.50 428.77 L 497.37 430.60 L 498.54 432.25 L 499.95 433.66 L 501.60 434.83 L 503.43 435.70 L 505.40 436.24 L 507.56 436.44 L 509.71 436.24 L 511.68 435.70 L 513.51 434.83 L 515.17 433.66 L 516.57 432.25 L 517.74 430.60 L 518.61 428.77 L 519.15 426.80 L 519.35 424.65 L 519.15 422.49 L 518.61 420.52 L 517.74 418.69 L 516.57 417.04 L 515.17 415.63 L 513.51 414.46 L 511.68 413.59 L 509.71 413.05 L 507.56 412.85" fill="#000000" fill-rule="evenodd" group-id="1,2" id="Fill-355" node-id="10" stroke="none" target-height="23.591003" target-width="23.590973" target-x="495.7618" target-y="412.8491"></path><path d="M 444.65 838.06 L 444.65 53.00 L 809.50 2.63 L 811.78 787.68 L 444.65 838.06 Z M 811.78 1.31 L 811.78 0.00 L 507.96 0.00 L 507.96 41.95 L 442.36 51.01 L 442.36 840.69 L 813.08 789.82 L 814.07 789.68 L 811.78 1.31 Z" fill="#000000" fill-rule="evenodd" group-id="1,2" id="Fill-356" node-id="11" stroke="none" target-height="840.689" target-width="371.70898" target-x="442.3645" target-y="0"></path><path d="M 132.53 318.58 L 0.00 492.53 L 2.16 493.80 L 4.59 494.91 L 8.53 496.25 L 11.38 496.95 L 14.83 497.49 L 18.99 497.84 L 23.14 497.85 L 27.91 497.43 L 33.40 496.53 L 38.77 495.19 L 44.81 493.14 L 51.62 490.27 L 58.16 486.94 L 65.43 482.57 L 73.50 477.02 L 160.90 363.62 L 159.54 358.54 L 157.64 353.31 L 155.17 347.93 L 152.32 342.72 L 149.05 337.57 L 145.35 332.47 L 141.35 327.59 L 137.08 322.96 L 132.53 318.58" fill="#ffbe21" fill-rule="evenodd" group-id="1,2" id="Fill-357" node-id="12" stroke="none" target-height="179.26572" target-width="160.898" target-x="0" target-y="318.583"></path></g></g></svg>