<?xml version="1.0" encoding="utf-8"?>
<!-- Generator: Adobe Illustrator 22.1.0, SVG Export Plug-In . SVG Version: 6.00 Build 0)  -->
<svg version="1.1" id="图层_1" xmlns="http://www.w3.org/2000/svg" xmlns:xlink="http://www.w3.org/1999/xlink" x="0px" y="0px"
	 viewBox="0 0 200 200" style="enable-background:new 0 0 200 200;" xml:space="preserve">
<style type="text/css">
	.st0{fill:url(#SVGID_1_);}
	.st1{fill:url(#SVGID_2_);}
	.st2{fill:url(#SVGID_3_);}
	.st3{fill:url(#SVGID_4_);}
	.st4{fill:url(#SVGID_5_);}
	.st5{fill:url(#SVGID_6_);}
	.st6{fill:url(#SVGID_7_);}
	.st7{fill:url(#SVGID_8_);}
	.st8{fill:url(#SVGID_9_);}
	.st9{fill:url(#SVGID_10_);}
	.st10{fill:url(#SVGID_11_);}
	.st11{fill:url(#SVGID_12_);}
	.st12{fill:url(#SVGID_13_);}
	.st13{fill:url(#SVGID_14_);}
	.st14{fill:url(#SVGID_15_);}
	.st15{fill:url(#SVGID_16_);}
</style>
<g>
	
		<linearGradient id="SVGID_1_" gradientUnits="userSpaceOnUse" x1="73.7981" y1="62.149" x2="178.0826" y2="223.8276" gradientTransform="matrix(1 0 0 -1 0 200)">
		<stop  offset="0" style="stop-color:#80FFEA"/>
		<stop  offset="0.4832" style="stop-color:#95F2FF"/>
		<stop  offset="0.5661" style="stop-color:#90ECFE"/>
		<stop  offset="0.6794" style="stop-color:#82DAFB"/>
		<stop  offset="0.8102" style="stop-color:#6BBEF7"/>
		<stop  offset="0.953" style="stop-color:#4B96F1"/>
		<stop  offset="1" style="stop-color:#3F87EF"/>
	</linearGradient>
	<polygon class="st0" points="54.8,131.7 55,121.7 63.3,118.9 63.4,108.9 71.7,106.1 71.8,96 80.1,93.2 80.2,83.2 88.5,80.4 
		88.7,70.4 97,67.5 97.1,57.5 105.4,54.7 105.5,44.7 113.8,41.9 114,31.8 122.3,29 122.4,19 129.6,17.3 178.9,20.2 170.6,23 
		170.4,33 162.1,35.8 162,45.9 153.7,48.7 153.6,58.7 145.3,61.5 145.2,71.5 136.9,74.3 136.7,84.4 128.4,87.2 128.3,97.2 120,100 
		119.9,110 111.6,112.9 111.5,122.9 103.1,125.7 103,135.7 	"/>
	<g>
		
			<linearGradient id="SVGID_2_" gradientUnits="userSpaceOnUse" x1="178.9" y1="179.8" x2="178.9" y2="179.8" gradientTransform="matrix(1 0 0 -1 0 200)">
			<stop  offset="0" style="stop-color:#969FFF"/>
			<stop  offset="1" style="stop-color:#8C81EF"/>
		</linearGradient>
		<path class="st1" d="M178.9,20.2"/>
		
			<linearGradient id="SVGID_3_" gradientUnits="userSpaceOnUse" x1="58.9357" y1="10.5299" x2="168.8086" y2="215.7642" gradientTransform="matrix(1 0 0 -1 0 200)">
			<stop  offset="0" style="stop-color:#969FFF"/>
			<stop  offset="1" style="stop-color:#8C81EF"/>
		</linearGradient>
		<polygon class="st2" points="170.5,33 122.3,29 122.4,19 170.6,23 		"/>
		
			<linearGradient id="SVGID_4_" gradientUnits="userSpaceOnUse" x1="57.6941" y1="11.1946" x2="167.567" y2="216.4289" gradientTransform="matrix(1 0 0 -1 0 200)">
			<stop  offset="0" style="stop-color:#969FFF"/>
			<stop  offset="1" style="stop-color:#8C81EF"/>
		</linearGradient>
		<polygon class="st3" points="162,45.8 113.8,41.8 114,31.8 162.1,35.8 		"/>
		
			<linearGradient id="SVGID_5_" gradientUnits="userSpaceOnUse" x1="56.4941" y1="11.837" x2="166.367" y2="217.0713" gradientTransform="matrix(1 0 0 -1 0 200)">
			<stop  offset="0" style="stop-color:#969FFF"/>
			<stop  offset="1" style="stop-color:#8C81EF"/>
		</linearGradient>
		<polygon class="st4" points="153.6,58.7 105.4,54.7 105.5,44.7 153.7,48.7 		"/>
		
			<linearGradient id="SVGID_6_" gradientUnits="userSpaceOnUse" x1="55.2913" y1="12.4809" x2="165.1642" y2="217.7152" gradientTransform="matrix(1 0 0 -1 0 200)">
			<stop  offset="0" style="stop-color:#969FFF"/>
			<stop  offset="1" style="stop-color:#8C81EF"/>
		</linearGradient>
		<polygon class="st5" points="145.2,71.5 97,67.5 97.1,57.5 145.3,61.5 		"/>
		
			<linearGradient id="SVGID_7_" gradientUnits="userSpaceOnUse" x1="54.0705" y1="13.1345" x2="163.9434" y2="218.3688" gradientTransform="matrix(1 0 0 -1 0 200)">
			<stop  offset="0" style="stop-color:#969FFF"/>
			<stop  offset="1" style="stop-color:#8C81EF"/>
		</linearGradient>
		<polygon class="st6" points="136.7,84.4 88.5,80.4 88.7,70.3 136.9,74.3 		"/>
		
			<linearGradient id="SVGID_8_" gradientUnits="userSpaceOnUse" x1="52.847" y1="13.7896" x2="162.7198" y2="219.0239" gradientTransform="matrix(1 0 0 -1 0 200)">
			<stop  offset="0" style="stop-color:#969FFF"/>
			<stop  offset="1" style="stop-color:#8C81EF"/>
		</linearGradient>
		<polygon class="st7" points="128.3,97.1 80.1,93.2 80.3,83.1 128.4,87.1 		"/>
		
			<linearGradient id="SVGID_9_" gradientUnits="userSpaceOnUse" x1="51.6469" y1="14.432" x2="161.5198" y2="219.6663" gradientTransform="matrix(1 0 0 -1 0 200)">
			<stop  offset="0" style="stop-color:#969FFF"/>
			<stop  offset="1" style="stop-color:#8C81EF"/>
		</linearGradient>
		<polygon class="st8" points="119.9,110 71.7,106 71.8,96 120,100 		"/>
		
			<linearGradient id="SVGID_10_" gradientUnits="userSpaceOnUse" x1="50.465" y1="15.0647" x2="160.3379" y2="220.299" gradientTransform="matrix(1 0 0 -1 0 200)">
			<stop  offset="0" style="stop-color:#969FFF"/>
			<stop  offset="1" style="stop-color:#8C81EF"/>
		</linearGradient>
		<polygon class="st9" points="111.5,122.9 63.3,118.9 63.4,108.8 111.6,112.8 		"/>
		
			<linearGradient id="SVGID_11_" gradientUnits="userSpaceOnUse" x1="49.2442" y1="15.7183" x2="159.1171" y2="220.9526" gradientTransform="matrix(1 0 0 -1 0 200)">
			<stop  offset="0" style="stop-color:#969FFF"/>
			<stop  offset="1" style="stop-color:#8C81EF"/>
		</linearGradient>
		<polygon class="st10" points="103,135.7 54.8,131.7 55,121.7 103.1,125.7 		"/>
		
			<linearGradient id="SVGID_12_" gradientUnits="userSpaceOnUse" x1="48.0025" y1="16.383" x2="157.8754" y2="221.6173" gradientTransform="matrix(1 0 0 -1 0 200)">
			<stop  offset="0" style="stop-color:#969FFF"/>
			<stop  offset="1" style="stop-color:#8C81EF"/>
		</linearGradient>
		<polygon class="st11" points="94.6,148.5 46.4,144.6 46.5,134.5 94.7,138.5 		"/>
		
			<linearGradient id="SVGID_13_" gradientUnits="userSpaceOnUse" x1="46.8414" y1="17.0047" x2="156.7143" y2="222.2389" gradientTransform="matrix(1 0 0 -1 0 200)">
			<stop  offset="0" style="stop-color:#969FFF"/>
			<stop  offset="1" style="stop-color:#8C81EF"/>
		</linearGradient>
		<polygon class="st12" points="86.2,161.4 38,157.4 38.1,147.4 86.3,151.3 		"/>
		
			<linearGradient id="SVGID_14_" gradientUnits="userSpaceOnUse" x1="45.5997" y1="17.6693" x2="155.4726" y2="222.9036" gradientTransform="matrix(1 0 0 -1 0 200)">
			<stop  offset="0" style="stop-color:#969FFF"/>
			<stop  offset="1" style="stop-color:#8C81EF"/>
		</linearGradient>
		<polygon class="st13" points="77.7,174.2 29.6,170.2 29.7,160.2 77.9,164.2 		"/>
		
			<linearGradient id="SVGID_15_" gradientUnits="userSpaceOnUse" x1="44.4178" y1="18.3021" x2="154.2907" y2="223.5364" gradientTransform="matrix(1 0 0 -1 0 200)">
			<stop  offset="0" style="stop-color:#969FFF"/>
			<stop  offset="1" style="stop-color:#8C81EF"/>
		</linearGradient>
		<polygon class="st14" points="69.3,187.1 21.1,183.1 21.3,173 69.4,177 		"/>
	</g>
	
		<linearGradient id="SVGID_16_" gradientUnits="userSpaceOnUse" x1="174.503" y1="165.728" x2="112.7892" y2="66.6989" gradientTransform="matrix(1 0 0 -1 0 200)">
		<stop  offset="0" style="stop-color:#8076E3"/>
		<stop  offset="0.5315" style="stop-color:#95ABFF"/>
		<stop  offset="1" style="stop-color:#EEA8FF"/>
	</linearGradient>
	<polyline class="st15" points="103,135.7 122.3,130.8 133.7,105 150.4,96 158,65.2 175.7,55.5 178.9,20.2 170.6,23 170.4,33 
		162.1,35.8 162,45.9 153.7,48.7 153.6,58.7 145.3,61.5 145.2,71.5 136.9,74.3 136.7,84.4 128.4,87.2 128.3,97.2 120,100 119.9,110 
		111.6,112.9 111.5,122.9 103.1,125.7 103,135.7 	"/>
</g>
</svg>
